<svg xmlns="http://www.w3.org/2000/svg" xmlns:xlink="http://www.w3.org/1999/xlink" width="2048" zoomAndPan="magnify" viewBox="0 0 1536 1535.999932" height="2048" preserveAspectRatio="xMidYMid meet" version="1.0"><defs><g/><clipPath id="39b278cc34"><path d="M 488.292969 644 L 1047.792969 644 L 1047.792969 1203.40625 L 488.292969 1203.40625 Z M 488.292969 644 " clip-rule="nonzero"/></clipPath></defs><g clip-path="url(#39b278cc34)"><path fill="#ffbd59" d="M 767.988281 755.222656 C 860.871094 755.222656 936.441406 830.789062 936.441406 923.675781 C 936.441406 1016.5625 860.875 1092.128906 767.988281 1092.128906 C 675.101562 1092.128906 599.53125 1016.5625 599.53125 923.675781 C 599.53125 830.789062 675.101562 755.222656 767.988281 755.222656 M 767.988281 644.105469 C 613.582031 644.105469 488.414062 769.273438 488.414062 923.675781 C 488.414062 1078.082031 613.582031 1203.25 767.984375 1203.25 C 922.390625 1203.25 1047.558594 1078.082031 1047.558594 923.675781 C 1047.558594 769.273438 922.390625 644.105469 767.988281 644.105469 Z M 767.988281 644.105469 " fill-opacity="1" fill-rule="nonzero"/></g><path fill="#c1ff72" d="M 911.808594 448.371094 L 796.589844 594.597656 C 775.378906 523.910156 851.453125 443.945312 911.808594 448.371094 Z M 911.808594 448.371094 " fill-opacity="1" fill-rule="nonzero"/><path fill="#7ed957" d="M 911.808594 448.371094 L 796.589844 594.597656 C 870.277344 598.6875 930.234375 506.019531 911.808594 448.371094 Z M 911.808594 448.371094 " fill-opacity="1" fill-rule="nonzero"/><path fill="#c1ff72" d="M 561.199219 340.3125 L 761.667969 594.726562 C 798.574219 471.738281 666.214844 332.605469 561.199219 340.3125 Z M 561.199219 340.3125 " fill-opacity="1" fill-rule="nonzero"/><path fill="#7ed957" d="M 561.199219 340.3125 L 761.667969 594.726562 C 633.460938 601.84375 529.144531 440.613281 561.199219 340.3125 Z M 561.199219 340.3125 " fill-opacity="1" fill-rule="nonzero"/><g fill="#000000" fill-opacity="1"><g transform="translate(1491.245522, 1516.991043)"><g><path d="M 22.390625 0.484375 C 18.941406 0.484375 15.832031 -0.285156 13.0625 -1.828125 C 10.300781 -3.367188 8.125 -5.578125 6.53125 -8.453125 C 4.9375 -11.335938 4.140625 -14.738281 4.140625 -18.65625 C 4.140625 -22.582031 4.9375 -25.984375 6.53125 -28.859375 C 8.125 -31.742188 10.300781 -33.957031 13.0625 -35.5 C 15.832031 -37.039062 18.941406 -37.8125 22.390625 -37.8125 C 25.847656 -37.8125 28.957031 -37.039062 31.71875 -35.5 C 34.488281 -33.957031 36.65625 -31.742188 38.21875 -28.859375 C 39.789062 -25.984375 40.578125 -22.582031 40.578125 -18.65625 C 40.578125 -14.738281 39.789062 -11.335938 38.21875 -8.453125 C 36.65625 -5.578125 34.488281 -3.367188 31.71875 -1.828125 C 28.957031 -0.285156 25.847656 0.484375 22.390625 0.484375 Z M 22.390625 -0.765625 C 25.390625 -0.765625 28.15625 -1.421875 30.6875 -2.734375 C 33.226562 -4.046875 35.28125 -6.035156 36.84375 -8.703125 C 38.40625 -11.378906 39.1875 -14.695312 39.1875 -18.65625 C 39.1875 -22.625 38.40625 -25.941406 36.84375 -28.609375 C 35.28125 -31.285156 33.226562 -33.28125 30.6875 -34.59375 C 28.15625 -35.90625 25.390625 -36.5625 22.390625 -36.5625 C 19.398438 -36.5625 16.625 -35.90625 14.0625 -34.59375 C 11.507812 -33.28125 9.445312 -31.273438 7.875 -28.578125 C 6.3125 -25.890625 5.53125 -22.582031 5.53125 -18.65625 C 5.53125 -14.738281 6.3125 -11.429688 7.875 -8.734375 C 9.445312 -6.046875 11.507812 -4.046875 14.0625 -2.734375 C 16.625 -1.421875 19.398438 -0.765625 22.390625 -0.765625 Z M 22.390625 -0.765625 "/></g></g></g></svg>